<?xml version="1.0" encoding="UTF-8" standalone="no"?>
<!DOCTYPE svg PUBLIC "-//W3C//DTD SVG 1.1//EN" "http://www.w3.org/Graphics/SVG/1.1/DTD/svg11.dtd">
<svg width="100%" height="100%" viewBox="0 0 319 319" version="1.1" xmlns="http://www.w3.org/2000/svg" xmlns:xlink="http://www.w3.org/1999/xlink" xml:space="preserve" xmlns:serif="http://www.serif.com/" style="fill-rule:evenodd;clip-rule:evenodd;stroke-linejoin:round;stroke-miterlimit:2;">
    <g transform="matrix(4.16667,0,0,4.16667,-375.696,-147.75)">
        <path d="M155.944,111.944L100.875,111.944C94.97,111.944 90.167,107.141 90.167,101.236L90.167,46.167C90.167,40.263 94.97,35.46 100.875,35.46L155.944,35.46C161.848,35.46 166.652,40.263 166.652,46.167L166.652,101.236C166.652,107.141 161.848,111.944 155.944,111.944ZM100.875,39.914C97.426,39.914 94.622,42.719 94.622,46.167L94.622,101.236C94.622,104.685 97.426,107.49 100.875,107.49L155.944,107.49C159.392,107.49 162.197,104.685 162.197,101.236L162.197,46.167C162.197,42.719 159.392,39.914 155.944,39.914L100.875,39.914Z" style="fill:rgb(223,217,53);fill-rule:nonzero;"/>
    </g>
    <g transform="matrix(4.16667,0,0,4.16667,-375.696,-147.75)">
        <path d="M98.778,74.847L99.584,75.854C99.663,75.791 100.265,75.321 101.234,74.802C101.677,74.184 102.155,73.516 102.667,72.804C100.335,73.626 98.81,74.82 98.778,74.847Z" style="fill:white;fill-rule:nonzero;"/>
    </g>
    <g transform="matrix(4.16667,0,0,4.16667,-375.696,-147.75)">
        <path d="M113.685,74.322C120.64,79.431 128.009,76.803 130.935,74.7C134.84,71.891 141.753,71.09 147.411,74.995C150.706,77.269 153.97,77.771 157.148,76.511C153.708,71.582 146.111,60.701 140.308,52.42C139.112,52.664 137.803,52.819 136.415,52.819C133.886,52.819 131.09,52.305 128.212,50.868C125.075,49.301 121.457,49.756 118.673,50.57C113.718,57.39 107.049,66.684 102.667,72.804C105.535,71.791 109.625,71.341 113.685,74.322Z" style="fill:rgb(130,159,64);fill-rule:nonzero;"/>
    </g>
    <g transform="matrix(4.16667,0,0,4.16667,-375.696,-147.75)">
        <path d="M157.909,77.603C154.24,79.188 150.473,78.675 146.678,76.057C141.512,72.492 135.226,73.203 131.688,75.747C129.861,77.061 126.445,78.564 122.439,78.564C119.456,78.564 116.146,77.73 112.922,75.362C108.261,71.939 103.626,73.523 101.234,74.802C99.512,77.207 98.353,78.829 98.138,79.127C97.049,80.636 96.4,83.433 99.585,84.19C102.771,84.95 155.632,87.225 158.969,84.19C160.542,82.762 159.638,80.076 158.969,79.122C158.895,79.015 158.518,78.476 157.909,77.603Z" style="fill:rgb(10,106,164);fill-rule:nonzero;"/>
    </g>
    <g transform="matrix(4.16667,0,0,4.16667,-375.696,-147.75)">
        <path d="M128.789,49.713C132.704,51.668 136.451,51.792 139.502,51.268C135.802,45.992 133.002,42.02 132.803,41.796C132.197,41.114 126.812,40.658 125.22,41.796C124.984,41.964 122.846,44.842 119.867,48.93C123.246,48.213 126.31,48.476 128.789,49.713Z" style="fill:rgb(143,214,230);fill-rule:nonzero;"/>
    </g>
    <g transform="matrix(4.16667,0,0,4.16667,-375.696,-147.75)">
        <path d="M118.552,49.252C115.644,50.069 113.574,51.276 113.487,51.328L114.141,52.439C114.18,52.417 116.057,51.334 118.673,50.57C119.083,50.006 119.482,49.458 119.867,48.93C119.433,49.022 118.996,49.129 118.552,49.252Z" style="fill:white;fill-rule:nonzero;"/>
    </g>
    <g transform="matrix(4.16667,0,0,4.16667,-375.696,-147.75)">
        <path d="M128.212,50.868C131.09,52.305 133.886,52.819 136.415,52.819C137.803,52.819 139.112,52.664 140.308,52.42C140.036,52.031 139.765,51.646 139.502,51.268C136.451,51.792 132.704,51.668 128.789,49.713C126.31,48.476 123.246,48.213 119.867,48.93C119.482,49.458 119.083,50.006 118.673,50.57C121.457,49.756 125.075,49.301 128.212,50.868Z" style="fill:white;fill-rule:nonzero;"/>
    </g>
    <g transform="matrix(4.16667,0,0,4.16667,-375.696,-147.75)">
        <path d="M112.922,75.362C116.146,77.73 119.456,78.564 122.439,78.564C126.445,78.564 129.861,77.061 131.688,75.747C135.226,73.203 141.512,72.492 146.678,76.057C150.473,78.675 154.24,79.188 157.909,77.603C157.686,77.282 157.43,76.917 157.148,76.511C153.97,77.771 150.706,77.269 147.411,74.995C141.753,71.09 134.84,71.891 130.935,74.7C128.009,76.803 120.64,79.431 113.685,74.322C109.625,71.341 105.535,71.791 102.667,72.804C102.155,73.516 101.677,74.184 101.234,74.802C103.626,73.523 108.261,71.939 112.922,75.362Z" style="fill:white;fill-rule:nonzero;"/>
    </g>
    <g transform="matrix(4.16667,0,0,4.16667,-375.696,-147.75)">
        <path d="M145.43,82.644L144.543,82.644L144.543,83.467L145.532,83.467L145.532,83.714L144.249,83.714L144.249,81.431L145.481,81.431L145.481,81.678L144.543,81.678L144.543,82.399L145.43,82.399L145.43,82.644Z" style="fill:white;fill-rule:nonzero;"/>
    </g>
    <g transform="matrix(4.16667,0,0,4.16667,-375.696,-147.75)">
        <path d="M145.877,83.355C146.008,83.436 146.202,83.504 146.405,83.504C146.707,83.504 146.882,83.345 146.882,83.114C146.882,82.901 146.76,82.779 146.453,82.66C146.08,82.528 145.849,82.335 145.849,82.013C145.849,81.658 146.144,81.394 146.587,81.394C146.822,81.394 146.991,81.448 147.092,81.505L147.011,81.746C146.937,81.705 146.785,81.637 146.578,81.637C146.266,81.637 146.147,81.824 146.147,81.98C146.147,82.193 146.287,82.298 146.601,82.42C146.988,82.569 147.184,82.755 147.184,83.09C147.184,83.443 146.923,83.748 146.384,83.748C146.165,83.748 145.924,83.684 145.802,83.602L145.877,83.355Z" style="fill:white;fill-rule:nonzero;"/>
    </g>
    <g transform="matrix(4.16667,0,0,4.16667,-375.696,-147.75)">
        <path d="M148.023,81.681L147.329,81.681L147.329,81.431L149.018,81.431L149.018,81.681L148.321,81.681L148.321,83.714L148.023,83.714L148.023,81.681Z" style="fill:white;fill-rule:nonzero;"/>
    </g>
    <g transform="matrix(4.16667,0,0,4.16667,-375.696,-147.75)">
        <path d="M149.888,83.714L149.888,83.531L150.122,83.304C150.684,82.769 150.938,82.484 150.942,82.152C150.942,81.929 150.834,81.722 150.504,81.722C150.305,81.722 150.139,81.824 150.038,81.908L149.943,81.698C150.095,81.57 150.312,81.475 150.566,81.475C151.04,81.475 151.24,81.8 151.24,82.115C151.24,82.522 150.945,82.85 150.481,83.297L150.305,83.46L150.305,83.467L151.294,83.467L151.294,83.714L149.888,83.714Z" style="fill:white;fill-rule:nonzero;"/>
    </g>
    <g transform="matrix(4.16667,0,0,4.16667,-375.696,-147.75)">
        <path d="M153.091,82.589C153.091,83.338 152.813,83.751 152.326,83.751C151.895,83.751 151.604,83.348 151.597,82.62C151.597,81.881 151.916,81.475 152.363,81.475C152.827,81.475 153.091,81.888 153.091,82.589ZM151.895,82.623C151.895,83.196 152.071,83.521 152.342,83.521C152.647,83.521 152.793,83.165 152.793,82.603C152.793,82.061 152.654,81.705 152.345,81.705C152.085,81.705 151.895,82.023 151.895,82.623Z" style="fill:white;fill-rule:nonzero;"/>
    </g>
    <g transform="matrix(4.16667,0,0,4.16667,-375.696,-147.75)">
        <path d="M153.368,83.714L153.368,83.531L153.601,83.304C154.164,82.769 154.418,82.484 154.421,82.152C154.421,81.929 154.313,81.722 153.984,81.722C153.785,81.722 153.619,81.824 153.517,81.908L153.422,81.698C153.575,81.57 153.792,81.475 154.045,81.475C154.519,81.475 154.719,81.8 154.719,82.115C154.719,82.522 154.424,82.85 153.96,83.297L153.785,83.46L153.785,83.467L154.774,83.467L154.774,83.714L153.368,83.714Z" style="fill:white;fill-rule:nonzero;"/>
    </g>
    <g transform="matrix(4.16667,0,0,4.16667,-375.696,-147.75)">
        <path d="M155.754,81.79L155.748,81.79L155.365,81.997L155.307,81.77L155.788,81.512L156.042,81.512L156.042,83.714L155.754,83.714L155.754,81.79Z" style="fill:white;fill-rule:nonzero;"/>
    </g>
    <g transform="matrix(4.16667,0,0,4.16667,-375.696,-147.75)">
        <path d="M98.173,87.168L105.065,87.168L105.065,88.356L99.377,88.356L99.377,92.102L105.014,92.102L105.014,93.273L99.377,93.273L99.377,97.99L105.014,97.99L105.014,99.177L98.173,99.177L98.173,87.168Z" style="fill:rgb(58,57,59);fill-rule:nonzero;"/>
    </g>
    <g transform="matrix(4.16667,0,0,4.16667,-375.696,-147.75)">
        <path d="M118.311,89.393L117.375,90.112C116.259,88.729 114.827,88.038 113.076,88.038C111.649,88.038 110.419,88.54 109.388,89.543C108.357,90.546 107.841,91.776 107.841,93.231C107.841,94.686 108.345,95.902 109.355,96.877C110.364,97.853 111.627,98.341 113.143,98.341C114.837,98.341 116.249,97.683 117.375,96.367L118.311,97.086C117.72,97.867 116.973,98.461 116.07,98.868C115.167,99.275 114.168,99.478 113.076,99.478C111.169,99.478 109.608,98.876 108.393,97.672C107.177,96.467 106.57,94.945 106.57,93.106C106.57,91.968 106.851,90.918 107.415,89.953C107.977,88.988 108.758,88.233 109.756,87.687C110.753,87.14 111.828,86.867 112.976,86.867C114.125,86.867 115.156,87.084 116.07,87.519C116.984,87.954 117.731,88.579 118.311,89.393Z" style="fill:rgb(58,57,59);fill-rule:nonzero;"/>
    </g>
    <g transform="matrix(4.16667,0,0,4.16667,-375.696,-147.75)">
        <path d="M120.202,93.223C120.202,92.063 120.48,90.993 121.039,90.011C121.595,89.03 122.36,88.261 123.33,87.703C124.299,87.146 125.356,86.867 126.5,86.867C127.642,86.867 128.707,87.143 129.694,87.695C130.68,88.247 131.456,89.011 132.019,89.986C132.582,90.962 132.864,92.022 132.864,93.164C132.864,94.307 132.585,95.366 132.027,96.342C131.469,97.318 130.703,98.085 129.727,98.642C128.752,99.2 127.692,99.478 126.549,99.478C125.406,99.478 124.344,99.202 123.363,98.65C122.381,98.098 121.61,97.337 121.046,96.367C120.483,95.397 120.202,94.349 120.202,93.223ZM131.609,93.172C131.609,91.734 131.11,90.519 130.112,89.526C129.114,88.534 127.913,88.038 126.507,88.038C125.069,88.038 123.868,88.537 122.903,89.535C121.938,90.533 121.457,91.748 121.457,93.181C121.457,94.614 121.953,95.827 122.945,96.819C123.937,97.812 125.136,98.307 126.541,98.307C127.946,98.307 129.142,97.822 130.128,96.852C131.116,95.882 131.609,94.656 131.609,93.172Z" style="fill:rgb(58,57,59);fill-rule:nonzero;"/>
    </g>
    <g transform="matrix(4.16667,0,0,4.16667,-375.696,-147.75)">
        <path d="M134.067,88.339L134.067,87.168L140.657,87.168L140.657,88.339L137.981,88.339L137.981,99.177L136.76,99.177L136.76,88.339L134.067,88.339Z" style="fill:rgb(58,57,59);fill-rule:nonzero;"/>
    </g>
    <g transform="matrix(4.16667,0,0,4.16667,-375.696,-147.75)">
        <path d="M142.396,87.168L149.288,87.168L149.288,88.356L143.6,88.356L143.6,92.102L149.237,92.102L149.237,93.273L143.6,93.273L143.6,97.99L149.237,97.99L149.237,99.177L142.396,99.177L142.396,87.168Z" style="fill:rgb(58,57,59);fill-rule:nonzero;"/>
    </g>
    <g transform="matrix(4.16667,0,0,4.16667,-375.696,-147.75)">
        <path d="M151.345,87.168L152.584,87.168L152.584,91.667L157.367,87.168L158.989,87.168L153.218,92.554L159.441,99.177L157.852,99.177L152.584,93.574L152.584,99.177L151.345,99.177L151.345,87.168Z" style="fill:rgb(58,57,59);fill-rule:nonzero;"/>
    </g>
    <g transform="matrix(4.16667,0,0,4.16667,-375.696,-147.75)">
        <path d="M98.474,101.516C98.685,101.472 98.987,101.448 99.274,101.448C99.719,101.448 100.007,101.53 100.209,101.712C100.372,101.856 100.462,102.076 100.462,102.325C100.462,102.752 100.194,103.034 99.854,103.149L99.854,103.164C100.103,103.25 100.252,103.48 100.329,103.815C100.434,104.266 100.51,104.577 100.578,104.702L100.146,104.702C100.093,104.611 100.022,104.333 99.93,103.93C99.835,103.485 99.663,103.317 99.284,103.303L98.891,103.303L98.891,104.702L98.474,104.702L98.474,101.516ZM98.891,102.986L99.317,102.986C99.763,102.986 100.045,102.742 100.045,102.373C100.045,101.956 99.744,101.774 99.303,101.77C99.102,101.77 98.958,101.789 98.891,101.808L98.891,102.986Z" style="fill:rgb(130,132,135);fill-rule:nonzero;"/>
    </g>
    <g transform="matrix(4.16667,0,0,4.16667,-375.696,-147.75)">
        <path d="M103.008,103.188L101.753,103.188L101.753,104.352L103.152,104.352L103.152,104.702L101.336,104.702L101.336,101.472L103.081,101.472L103.081,101.822L101.753,101.822L101.753,102.843L103.008,102.843L103.008,103.188Z" style="fill:rgb(130,132,135);fill-rule:nonzero;"/>
    </g>
    <g transform="matrix(4.16667,0,0,4.16667,-375.696,-147.75)">
        <path d="M104.73,104.702L103.676,101.472L104.127,101.472L104.629,103.063C104.768,103.499 104.888,103.892 104.974,104.271L104.984,104.271C105.075,103.897 105.21,103.489 105.353,103.068L105.899,101.472L106.344,101.472L105.19,104.702L104.73,104.702Z" style="fill:rgb(130,132,135);fill-rule:nonzero;"/>
    </g>
    <g transform="matrix(4.16667,0,0,4.16667,-375.696,-147.75)">
        <rect x="106.978" y="101.472" width="0.417" height="3.23" style="fill:rgb(130,132,135);fill-rule:nonzero;"/>
    </g>
    <g transform="matrix(4.16667,0,0,4.16667,-375.696,-147.75)">
        <path d="M109.022,101.827L108.04,101.827L108.04,101.472L110.43,101.472L110.43,101.827L109.444,101.827L109.444,104.702L109.022,104.702L109.022,101.827Z" style="fill:rgb(130,132,135);fill-rule:nonzero;"/>
    </g>
    <g transform="matrix(4.16667,0,0,4.16667,-375.696,-147.75)">
        <path d="M111.238,103.686L110.902,104.702L110.471,104.702L111.568,101.472L112.071,101.472L113.173,104.702L112.727,104.702L112.382,103.686L111.238,103.686ZM112.296,103.36L111.98,102.431C111.909,102.22 111.86,102.028 111.812,101.841L111.803,101.841C111.755,102.033 111.703,102.23 111.64,102.426L111.324,103.36L112.296,103.36Z" style="fill:rgb(130,132,135);fill-rule:nonzero;"/>
    </g>
    <g transform="matrix(4.16667,0,0,4.16667,-375.696,-147.75)">
        <path d="M113.932,101.472L114.349,101.472L114.349,104.352L115.729,104.352L115.729,104.702L113.932,104.702L113.932,101.472Z" style="fill:rgb(130,132,135);fill-rule:nonzero;"/>
    </g>
    <g transform="matrix(4.16667,0,0,4.16667,-375.696,-147.75)">
        <rect x="116.478" y="101.472" width="0.417" height="3.23" style="fill:rgb(130,132,135);fill-rule:nonzero;"/>
    </g>
    <g transform="matrix(4.16667,0,0,4.16667,-375.696,-147.75)">
        <path d="M117.688,104.458L119.48,101.836L119.48,101.822L117.841,101.822L117.841,101.472L120.022,101.472L120.022,101.726L118.239,104.337L118.239,104.352L120.045,104.352L120.045,104.702L117.688,104.702L117.688,104.458Z" style="fill:rgb(130,132,135);fill-rule:nonzero;"/>
    </g>
    <g transform="matrix(4.16667,0,0,4.16667,-375.696,-147.75)">
        <rect x="120.842" y="101.472" width="0.417" height="3.23" style="fill:rgb(130,132,135);fill-rule:nonzero;"/>
    </g>
    <g transform="matrix(4.16667,0,0,4.16667,-375.696,-147.75)">
        <path d="M122.273,104.702L122.273,101.472L122.728,101.472L123.763,103.106C124.002,103.485 124.189,103.825 124.342,104.155L124.352,104.151C124.314,103.719 124.304,103.327 124.304,102.824L124.304,101.472L124.697,101.472L124.697,104.702L124.276,104.702L123.251,103.063C123.025,102.704 122.809,102.335 122.647,101.985L122.632,101.99C122.656,102.397 122.666,102.785 122.666,103.322L122.666,104.702L122.273,104.702Z" style="fill:rgb(130,132,135);fill-rule:nonzero;"/>
    </g>
    <g transform="matrix(4.16667,0,0,4.16667,-375.696,-147.75)">
        <path d="M128.168,104.558C127.98,104.625 127.612,104.735 127.175,104.735C126.687,104.735 126.285,104.611 125.968,104.309C125.69,104.041 125.518,103.609 125.518,103.106C125.523,102.143 126.184,101.439 127.266,101.439C127.64,101.439 127.932,101.52 128.072,101.587L127.971,101.928C127.798,101.851 127.583,101.789 127.257,101.789C126.471,101.789 125.959,102.277 125.959,103.087C125.959,103.906 126.452,104.39 127.205,104.39C127.477,104.39 127.665,104.352 127.76,104.304L127.76,103.341L127.104,103.341L127.104,103.005L128.168,103.005L128.168,104.558Z" style="fill:rgb(130,132,135);fill-rule:nonzero;"/>
    </g>
    <g transform="matrix(4.16667,0,0,4.16667,-375.696,-147.75)">
        <path d="M132.109,101.827L131.127,101.827L131.127,101.472L133.517,101.472L133.517,101.827L132.531,101.827L132.531,104.702L132.109,104.702L132.109,101.827Z" style="fill:rgb(130,132,135);fill-rule:nonzero;"/>
    </g>
    <g transform="matrix(4.16667,0,0,4.16667,-375.696,-147.75)">
        <path d="M134.578,101.472L134.578,102.824L136.139,102.824L136.139,101.472L136.561,101.472L136.561,104.702L136.139,104.702L136.139,103.188L134.578,103.188L134.578,104.702L134.161,104.702L134.161,101.472L134.578,101.472Z" style="fill:rgb(130,132,135);fill-rule:nonzero;"/>
    </g>
    <g transform="matrix(4.16667,0,0,4.16667,-375.696,-147.75)">
        <path d="M139.24,103.188L137.985,103.188L137.985,104.352L139.383,104.352L139.383,104.702L137.568,104.702L137.568,101.472L139.312,101.472L139.312,101.822L137.985,101.822L137.985,102.843L139.24,102.843L139.24,103.188Z" style="fill:rgb(130,132,135);fill-rule:nonzero;"/>
    </g>
    <g transform="matrix(4.16667,0,0,4.16667,-375.696,-147.75)">
        <path d="M142.813,101.472L144.552,101.472L144.552,101.822L143.23,101.822L143.23,102.896L144.452,102.896L144.452,103.24L143.23,103.24L143.23,104.702L142.813,104.702L142.813,101.472Z" style="fill:rgb(130,132,135);fill-rule:nonzero;"/>
    </g>
    <g transform="matrix(4.16667,0,0,4.16667,-375.696,-147.75)">
        <path d="M145.848,101.472L145.848,103.384C145.848,104.107 146.168,104.414 146.6,104.414C147.08,104.414 147.386,104.098 147.386,103.384L147.386,101.472L147.807,101.472L147.807,103.356C147.807,104.347 147.286,104.754 146.585,104.754C145.924,104.754 145.426,104.376 145.426,103.375L145.426,101.472L145.848,101.472Z" style="fill:rgb(130,132,135);fill-rule:nonzero;"/>
    </g>
    <g transform="matrix(4.16667,0,0,4.16667,-375.696,-147.75)">
        <path d="M149.427,101.827L148.445,101.827L148.445,101.472L150.835,101.472L150.835,101.827L149.849,101.827L149.849,104.702L149.427,104.702L149.427,101.827Z" style="fill:rgb(130,132,135);fill-rule:nonzero;"/>
    </g>
    <g transform="matrix(4.16667,0,0,4.16667,-375.696,-147.75)">
        <path d="M151.897,101.472L151.897,103.384C151.897,104.107 152.217,104.414 152.649,104.414C153.128,104.414 153.435,104.098 153.435,103.384L153.435,101.472L153.856,101.472L153.856,103.356C153.856,104.347 153.335,104.754 152.634,104.754C151.973,104.754 151.475,104.376 151.475,103.375L151.475,101.472L151.897,101.472Z" style="fill:rgb(130,132,135);fill-rule:nonzero;"/>
    </g>
    <g transform="matrix(4.16667,0,0,4.16667,-375.696,-147.75)">
        <path d="M154.864,101.516C155.075,101.472 155.377,101.448 155.664,101.448C156.11,101.448 156.397,101.53 156.598,101.712C156.761,101.856 156.852,102.076 156.852,102.325C156.852,102.752 156.584,103.034 156.244,103.149L156.244,103.164C156.493,103.25 156.641,103.48 156.718,103.815C156.824,104.266 156.9,104.577 156.967,104.702L156.536,104.702C156.483,104.611 156.412,104.333 156.32,103.93C156.224,103.485 156.052,103.317 155.673,103.303L155.281,103.303L155.281,104.702L154.864,104.702L154.864,101.516ZM155.281,102.986L155.707,102.986C156.153,102.986 156.435,102.742 156.435,102.373C156.435,101.956 156.133,101.774 155.693,101.77C155.492,101.77 155.347,101.789 155.281,101.808L155.281,102.986Z" style="fill:rgb(130,132,135);fill-rule:nonzero;"/>
    </g>
    <g transform="matrix(4.16667,0,0,4.16667,-375.696,-147.75)">
        <path d="M159.397,103.188L158.142,103.188L158.142,104.352L159.541,104.352L159.541,104.702L157.725,104.702L157.725,101.472L159.469,101.472L159.469,101.822L158.142,101.822L158.142,102.843L159.397,102.843L159.397,103.188Z" style="fill:rgb(130,132,135);fill-rule:nonzero;"/>
    </g>
</svg>
